<mxfile host="app.diagrams.net" agent="Mozilla/5.0 (Windows NT 10.0; Win64; x64) AppleWebKit/537.36 (KHTML, like Gecko) Chrome/134.0.0.0 Safari/537.36" version="26.1.1">
  <diagram name="Page-1" id="E8nP3whgu4B2JOrv2gdp">
    <mxGraphModel dx="794" dy="454" grid="1" gridSize="10" guides="1" tooltips="1" connect="1" arrows="1" fold="1" page="1" pageScale="1" pageWidth="850" pageHeight="1100" math="0" shadow="0">
      <root>
        <mxCell id="0" />
        <mxCell id="1" parent="0" />
        <mxCell id="tD4AE-S6UwKGjwgNlo43-11" style="edgeStyle=orthogonalEdgeStyle;rounded=0;orthogonalLoop=1;jettySize=auto;html=1;exitX=1;exitY=0.5;exitDx=0;exitDy=0;entryX=0.5;entryY=0;entryDx=0;entryDy=0;" edge="1" parent="1" source="tD4AE-S6UwKGjwgNlo43-1" target="tD4AE-S6UwKGjwgNlo43-5">
          <mxGeometry relative="1" as="geometry" />
        </mxCell>
        <mxCell id="tD4AE-S6UwKGjwgNlo43-14" style="edgeStyle=orthogonalEdgeStyle;rounded=0;orthogonalLoop=1;jettySize=auto;html=1;exitX=0;exitY=0.5;exitDx=0;exitDy=0;entryX=0.5;entryY=0;entryDx=0;entryDy=0;" edge="1" parent="1" source="tD4AE-S6UwKGjwgNlo43-1" target="tD4AE-S6UwKGjwgNlo43-2">
          <mxGeometry relative="1" as="geometry" />
        </mxCell>
        <mxCell id="tD4AE-S6UwKGjwgNlo43-25" style="edgeStyle=orthogonalEdgeStyle;rounded=0;orthogonalLoop=1;jettySize=auto;html=1;exitX=1;exitY=0.5;exitDx=0;exitDy=0;" edge="1" parent="1" source="tD4AE-S6UwKGjwgNlo43-1" target="tD4AE-S6UwKGjwgNlo43-24">
          <mxGeometry relative="1" as="geometry" />
        </mxCell>
        <mxCell id="tD4AE-S6UwKGjwgNlo43-1" value="100-MAIN-PROCEDURE" style="rounded=0;whiteSpace=wrap;html=1;" vertex="1" parent="1">
          <mxGeometry x="350" y="50" width="120" height="60" as="geometry" />
        </mxCell>
        <mxCell id="tD4AE-S6UwKGjwgNlo43-15" style="edgeStyle=orthogonalEdgeStyle;rounded=0;orthogonalLoop=1;jettySize=auto;html=1;exitX=0;exitY=0.5;exitDx=0;exitDy=0;entryX=0;entryY=0.5;entryDx=0;entryDy=0;" edge="1" parent="1" source="tD4AE-S6UwKGjwgNlo43-2" target="tD4AE-S6UwKGjwgNlo43-3">
          <mxGeometry relative="1" as="geometry" />
        </mxCell>
        <mxCell id="tD4AE-S6UwKGjwgNlo43-16" style="edgeStyle=orthogonalEdgeStyle;rounded=0;orthogonalLoop=1;jettySize=auto;html=1;entryX=0.5;entryY=0;entryDx=0;entryDy=0;" edge="1" parent="1" source="tD4AE-S6UwKGjwgNlo43-2" target="tD4AE-S6UwKGjwgNlo43-10">
          <mxGeometry relative="1" as="geometry">
            <Array as="points">
              <mxPoint x="230" y="180" />
              <mxPoint x="230" y="310" />
              <mxPoint x="310" y="310" />
            </Array>
          </mxGeometry>
        </mxCell>
        <mxCell id="tD4AE-S6UwKGjwgNlo43-30" style="edgeStyle=orthogonalEdgeStyle;rounded=0;orthogonalLoop=1;jettySize=auto;html=1;exitX=0;exitY=0.5;exitDx=0;exitDy=0;entryX=0;entryY=0.5;entryDx=0;entryDy=0;" edge="1" parent="1" source="tD4AE-S6UwKGjwgNlo43-2" target="tD4AE-S6UwKGjwgNlo43-29">
          <mxGeometry relative="1" as="geometry" />
        </mxCell>
        <mxCell id="tD4AE-S6UwKGjwgNlo43-2" value="200-INITIALIZE" style="rounded=0;whiteSpace=wrap;html=1;" vertex="1" parent="1">
          <mxGeometry x="250" y="150" width="120" height="60" as="geometry" />
        </mxCell>
        <mxCell id="tD4AE-S6UwKGjwgNlo43-3" value="300-OPEN-FILES" style="rounded=0;whiteSpace=wrap;html=1;" vertex="1" parent="1">
          <mxGeometry x="250" y="240" width="120" height="60" as="geometry" />
        </mxCell>
        <mxCell id="tD4AE-S6UwKGjwgNlo43-4" value="301-READ-STOCK-FILE" style="rounded=0;whiteSpace=wrap;html=1;" vertex="1" parent="1">
          <mxGeometry x="250" y="370" width="120" height="60" as="geometry" />
        </mxCell>
        <mxCell id="tD4AE-S6UwKGjwgNlo43-12" style="edgeStyle=orthogonalEdgeStyle;rounded=0;orthogonalLoop=1;jettySize=auto;html=1;exitX=0;exitY=0.5;exitDx=0;exitDy=0;entryX=0;entryY=0.5;entryDx=0;entryDy=0;" edge="1" parent="1" source="tD4AE-S6UwKGjwgNlo43-5" target="tD4AE-S6UwKGjwgNlo43-17">
          <mxGeometry relative="1" as="geometry" />
        </mxCell>
        <mxCell id="tD4AE-S6UwKGjwgNlo43-13" style="edgeStyle=orthogonalEdgeStyle;rounded=0;orthogonalLoop=1;jettySize=auto;html=1;entryX=0.5;entryY=0;entryDx=0;entryDy=0;" edge="1" parent="1" source="tD4AE-S6UwKGjwgNlo43-5" target="tD4AE-S6UwKGjwgNlo43-8">
          <mxGeometry relative="1" as="geometry">
            <Array as="points">
              <mxPoint x="440" y="180" />
              <mxPoint x="440" y="320" />
              <mxPoint x="520" y="320" />
            </Array>
          </mxGeometry>
        </mxCell>
        <mxCell id="tD4AE-S6UwKGjwgNlo43-23" style="edgeStyle=orthogonalEdgeStyle;rounded=0;orthogonalLoop=1;jettySize=auto;html=1;entryX=0;entryY=0.5;entryDx=0;entryDy=0;" edge="1" parent="1" source="tD4AE-S6UwKGjwgNlo43-5" target="tD4AE-S6UwKGjwgNlo43-18">
          <mxGeometry relative="1" as="geometry">
            <Array as="points">
              <mxPoint x="440" y="180" />
              <mxPoint x="440" y="490" />
            </Array>
          </mxGeometry>
        </mxCell>
        <mxCell id="tD4AE-S6UwKGjwgNlo43-5" value="201-GENERATE-REPORT-RECORDS" style="rounded=0;whiteSpace=wrap;html=1;" vertex="1" parent="1">
          <mxGeometry x="460" y="150" width="120" height="60" as="geometry" />
        </mxCell>
        <mxCell id="tD4AE-S6UwKGjwgNlo43-6" value="400-READ-PORTFOLIO-RECORD" style="rounded=0;whiteSpace=wrap;html=1;" vertex="1" parent="1">
          <mxGeometry x="620" y="380" width="120" height="60" as="geometry" />
        </mxCell>
        <mxCell id="tD4AE-S6UwKGjwgNlo43-7" value="402-CREATE-REPORT-RECORD" style="rounded=0;whiteSpace=wrap;html=1;" vertex="1" parent="1">
          <mxGeometry x="620" y="560" width="120" height="60" as="geometry" />
        </mxCell>
        <mxCell id="tD4AE-S6UwKGjwgNlo43-8" value="" style="rhombus;whiteSpace=wrap;html=1;" vertex="1" parent="1">
          <mxGeometry x="500" y="340" width="40" height="40" as="geometry" />
        </mxCell>
        <mxCell id="tD4AE-S6UwKGjwgNlo43-10" value="" style="rhombus;whiteSpace=wrap;html=1;" vertex="1" parent="1">
          <mxGeometry x="290" y="330" width="40" height="40" as="geometry" />
        </mxCell>
        <mxCell id="tD4AE-S6UwKGjwgNlo43-17" value="302-CREATE-REPORT-HEADER" style="rounded=0;whiteSpace=wrap;html=1;" vertex="1" parent="1">
          <mxGeometry x="460" y="240" width="120" height="60" as="geometry" />
        </mxCell>
        <mxCell id="tD4AE-S6UwKGjwgNlo43-18" value="304-CREATE-REPORT-FOOTER" style="rounded=0;whiteSpace=wrap;html=1;" vertex="1" parent="1">
          <mxGeometry x="460" y="460" width="120" height="60" as="geometry" />
        </mxCell>
        <mxCell id="tD4AE-S6UwKGjwgNlo43-21" style="edgeStyle=orthogonalEdgeStyle;rounded=0;orthogonalLoop=1;jettySize=auto;html=1;exitX=1;exitY=0.5;exitDx=0;exitDy=0;entryX=0;entryY=0.5;entryDx=0;entryDy=0;" edge="1" parent="1" source="tD4AE-S6UwKGjwgNlo43-19" target="tD4AE-S6UwKGjwgNlo43-6">
          <mxGeometry relative="1" as="geometry" />
        </mxCell>
        <mxCell id="tD4AE-S6UwKGjwgNlo43-22" style="edgeStyle=orthogonalEdgeStyle;rounded=0;orthogonalLoop=1;jettySize=auto;html=1;entryX=0;entryY=0.5;entryDx=0;entryDy=0;" edge="1" parent="1" source="tD4AE-S6UwKGjwgNlo43-19" target="tD4AE-S6UwKGjwgNlo43-7">
          <mxGeometry relative="1" as="geometry" />
        </mxCell>
        <mxCell id="tD4AE-S6UwKGjwgNlo43-28" style="edgeStyle=orthogonalEdgeStyle;rounded=0;orthogonalLoop=1;jettySize=auto;html=1;exitX=1;exitY=0.5;exitDx=0;exitDy=0;entryX=0;entryY=0.5;entryDx=0;entryDy=0;" edge="1" parent="1" source="tD4AE-S6UwKGjwgNlo43-19" target="tD4AE-S6UwKGjwgNlo43-27">
          <mxGeometry relative="1" as="geometry" />
        </mxCell>
        <mxCell id="tD4AE-S6UwKGjwgNlo43-19" value="303-CREATE-REPORT-LINE" style="rounded=0;whiteSpace=wrap;html=1;" vertex="1" parent="1">
          <mxGeometry x="460" y="380" width="120" height="60" as="geometry" />
        </mxCell>
        <mxCell id="tD4AE-S6UwKGjwgNlo43-32" style="edgeStyle=orthogonalEdgeStyle;rounded=0;orthogonalLoop=1;jettySize=auto;html=1;exitX=0.5;exitY=1;exitDx=0;exitDy=0;entryX=0.5;entryY=0;entryDx=0;entryDy=0;" edge="1" parent="1" source="tD4AE-S6UwKGjwgNlo43-24" target="tD4AE-S6UwKGjwgNlo43-31">
          <mxGeometry relative="1" as="geometry" />
        </mxCell>
        <mxCell id="tD4AE-S6UwKGjwgNlo43-24" value="202-TERMINATE" style="rounded=0;whiteSpace=wrap;html=1;" vertex="1" parent="1">
          <mxGeometry x="650" y="150" width="120" height="60" as="geometry" />
        </mxCell>
        <mxCell id="tD4AE-S6UwKGjwgNlo43-26" value="Project 2&lt;div&gt;Paul Squires - 040766405&lt;/div&gt;&lt;div&gt;Cole Brito - 041074688&lt;/div&gt;" style="shape=note;whiteSpace=wrap;html=1;backgroundOutline=1;darkOpacity=0.05;" vertex="1" parent="1">
          <mxGeometry x="740" y="30" width="180" height="100" as="geometry" />
        </mxCell>
        <mxCell id="tD4AE-S6UwKGjwgNlo43-27" value="401-SEARCH-STOCK-RECORD" style="rounded=0;whiteSpace=wrap;html=1;" vertex="1" parent="1">
          <mxGeometry x="620" y="470" width="120" height="60" as="geometry" />
        </mxCell>
        <mxCell id="tD4AE-S6UwKGjwgNlo43-29" value="305-CLOSE-STOCK-FILE" style="rounded=0;whiteSpace=wrap;html=1;" vertex="1" parent="1">
          <mxGeometry x="250" y="460" width="120" height="60" as="geometry" />
        </mxCell>
        <mxCell id="tD4AE-S6UwKGjwgNlo43-31" value="306-CLOSE-FILES" style="rounded=0;whiteSpace=wrap;html=1;" vertex="1" parent="1">
          <mxGeometry x="650" y="240" width="120" height="60" as="geometry" />
        </mxCell>
      </root>
    </mxGraphModel>
  </diagram>
</mxfile>
